<?xml version="1.0" encoding="UTF-8"?><svg id="Layer_2" xmlns="http://www.w3.org/2000/svg" viewBox="0 0 180.17 50"><defs><style>.cls-1{fill:#d71016;}.cls-2{fill:#0a0a0a;}</style></defs><g id="Layer_1-2"><g><path class="cls-1" d="m14.89,8.08h-2.6v-1.67h2.6v1.67Zm0,4.04h-2.6v-1.67h2.6v1.67Zm0,23.41h-2.6V14.48h2.6v21.04Zm0,4.04h-2.59v-1.67h2.59v1.67Zm0,4.04h-2.59v-1.67h2.59v1.67Zm-4.96-31.48h-2.6v-1.67h2.6v1.67Zm0,23.41h-2.6V14.48h2.6v21.04Zm0,4.04h-2.6v-1.67h2.6v1.67Zm-4.96-4.04h-2.6V14.48h2.6v21.04ZM14.89,4.04h-4.96v4.04h-4.96v4.04H0v25.77s4.96,0,4.96,0v4.04h4.96v4.04h4.96v4.04h31.65v-2.37h-29.28v-1.67h24.32v-2.37h-24.32v-1.67h19.35v-2.37h-19.35v-1.67h14.39v-2.37h-14.39V14.48h14.39v-2.37h-14.39v-1.67h19.35v-2.37h-19.35v-1.67h24.32v-2.37h-24.32v-1.67h29.28V0H14.89v4.04Z"/><g><polygon class="cls-2" points="77.14 15.83 87.28 15.83 87.28 22.71 90.31 22.71 90.31 6.17 87.28 6.17 87.28 12.92 77.14 12.92 77.14 6.17 74.08 6.17 74.08 22.71 77.14 22.71 77.14 15.83"/><path class="cls-2" d="m97.9,16.14l2.69-6.8c.1-.24.22-.34.43-.34h.43c.22,0,.34.1.43.34l2.69,6.8h-6.68Zm3.97-10.22h-1.25c-1.54,0-2.26.77-2.91,2.38l-5.7,14.4h3.29l1.47-3.73h8.92l1.49,3.73h3.29l-5.7-14.4c-.65-1.61-1.37-2.38-2.91-2.38"/><path class="cls-2" d="m125.64,13.28c0,.6-.36.99-.96.99h-9.5v-5.19h9.5c.6,0,.96.36.96.96v3.24Zm3.05-.12v-2.98c0-2.38-1.63-4.01-4.01-4.01h-12.55v16.54h3.05v-5.53h7.07l3.51,5.53h3.63l-3.58-5.65c1.76-.43,2.88-1.95,2.88-3.89"/><path class="cls-2" d="m134.72,19.32V6.17h-3.05v13c0,1.97,1.56,3.53,3.53,3.53h10v-2.91h-10c-.26,0-.48-.22-.48-.48"/><path class="cls-2" d="m147.12,10.4v8.08c0,2.36,1.9,4.23,4.23,4.23h10.67v-2.91h-10.67c-.65,0-1.2-.55-1.2-1.2v-2.76h11.2v-2.91h-11.2v-2.64c0-.67.55-1.18,1.2-1.18h10.67v-2.93h-10.67c-2.33,0-4.23,1.87-4.23,4.23"/><path class="cls-2" d="m176.54,13.72l-7.93-1.56c-.36-.07-1.18-.29-1.18-1.03v-.77c0-.7.58-1.27,1.27-1.27h10.74v-2.91h-10.74c-2.38,0-4.33,1.9-4.33,4.28v.67c0,2,1.47,3.61,3.63,4.04l7.98,1.56c.36.07,1.15.29,1.15,1.03v.77c0,.72-.6,1.27-1.3,1.27h-11.47v2.91h11.47c2.4,0,4.33-1.9,4.33-4.3v-.65c0-2.02-1.49-3.61-3.63-4.04"/><path class="cls-2" d="m63.72,41.16h-5.41v-10.72h5.41c2.96,0,5.36,2.4,5.36,5.36s-2.4,5.36-5.36,5.36m.12-13.63h-8.56v16.54h8.56c4.57,0,8.27-3.7,8.27-8.27s-3.7-8.27-8.27-8.27"/><path class="cls-2" d="m77.78,37.51l2.69-6.8c.09-.24.22-.34.43-.34h.43c.22,0,.34.1.43.34l2.69,6.8h-6.68Zm3.97-10.22h-1.25c-1.54,0-2.26.77-2.91,2.38l-5.7,14.4h3.29l1.47-3.73h8.92l1.49,3.73h3.29l-5.7-14.4c-.65-1.61-1.37-2.38-2.91-2.38"/><path class="cls-2" d="m98.36,35.25c-.14.22-.26.43-.65.43s-.5-.22-.65-.43l-5.41-7.72h-3.65l6.35,9.04c.58.96,1.25,1.56,1.8,1.78v5.72h3.13v-5.72c.55-.22,1.23-.82,1.8-1.78l6.35-9.04h-3.65l-5.41,7.72Z"/><path class="cls-2" d="m63.56,22.71h8.12v-2.91h-8c-2.96,0-5.36-2.4-5.36-5.36s2.4-5.36,5.36-5.36h8v-2.91h-8.12c-4.57,0-8.27,3.7-8.27,8.27s3.7,8.27,8.27,8.27"/></g></g></g></svg>