<?xml version="1.0" encoding="utf-8"?>
<!-- Generator: Adobe Illustrator 18.1.1, SVG Export Plug-In . SVG Version: 6.00 Build 0)  -->
<!DOCTYPE svg PUBLIC "-//W3C//DTD SVG 1.1//EN" "http://www.w3.org/Graphics/SVG/1.1/DTD/svg11.dtd">
<svg version="1.1" id="Layer_1" xmlns="http://www.w3.org/2000/svg" xmlns:xlink="http://www.w3.org/1999/xlink" x="0px" y="0px"
	 width="122px" height="71px" viewBox="0 0 122 71" enable-background="new 0 0 122 71" xml:space="preserve">
<g>
	<polyline fill="#F08217" points="48.258,48.964 59.063,0.5 56.702,0.5 45.895,48.964 18.874,48.964 29.68,0.5 27.317,0.5 
		16.512,48.964 0.218,48.964 0.218,70.5 121.782,70.5 121.782,48.964 48.258,48.964 	"/>
	<path fill="#FFFFFF" d="M20.339,65.459V53.412h2.505c1.201,0,2.149,0.121,2.845,0.363c0.747,0.236,1.425,0.639,2.033,1.207
		c1.232,1.147,1.735,2.65,1.735,4.516c0,1.873-0.529,3.391-1.812,4.548c-0.644,0.579-1.319,0.847-2.026,1.074
		c-0.66,0.226-1.595,0.339-2.806,0.339H20.339 M21.863,64.004h1.09c0.809,0,1.482-0.02,2.018-0.194
		c0.536-0.184,1.239-0.643,1.672-1.043c0.887-0.826,1.111-1.938,1.111-3.264c0-1.336-0.38-2.674-1.256-3.506
		c-0.789-0.741-2.009-1.213-3.545-1.213h-1.09V64.004z"/>
	<path fill="#FFFFFF" d="M58.949,59.447c0-1.714,0.623-3.187,1.869-4.418c1.242-1.23,2.733-1.846,4.474-1.846
		c1.721,0,3.197,0.621,4.427,1.862c1.236,1.241,1.854,2.732,1.854,4.472c0,1.752-0.62,3.237-1.862,4.458
		c-1.246,1.226-2.75,1.838-4.513,1.838c-1.56,0-2.96-0.544-4.201-1.633C59.633,62.976,58.949,61.398,58.949,59.447 M60.608,59.191
		c0,1.346,0.445,2.682,1.331,3.548c0.882,0.868,2.13,1.435,3.284,1.435c1.252,0,2.596-0.517,3.457-1.401
		c0.861-0.893,1.268-2.268,1.268-3.55c0-1.299-0.594-2.482-1.444-3.36c-0.845-0.883-1.987-1.228-3.235-1.228
		c-1.243,0-2.291,0.442-3.146,1.324C61.268,56.832,60.608,57.909,60.608,59.191z"/>
	<path fill="#FFFFFF" d="M84.263,59.928l3.906,5.531h-1.962l-3.619-5.386h-0.364v5.386h-1.553V53.412h2.111
		c1.577,0,2.793,0.088,3.493,0.692c0.773,0.674,1.189,1.274,1.189,2.378c0,0.862-0.268,1.684-0.752,2.305
		C86.229,59.408,85.057,59.754,84.263,59.928 M82.225,58.642h0.572c1.706,0,3.066-0.219,3.066-1.916
		c0-1.772-1.338-1.949-2.997-1.949h-0.642V58.642z"/>
	<path fill="#FFFFFF" d="M102.944,55.148l-1.261,0.801c-0.114-0.21-0.331-0.621-0.582-0.898c-0.208-0.228-0.731-0.485-1.139-0.485
		c-1.021,0-1.235,0.283-1.531,0.606c-0.509,0.558-0.436,1.025-0.436,1.456c0,0.595,0.589,1.214,1.455,1.577l1.238,0.728
		c0.969,0.4,1.419,0.831,1.867,1.407c0.449,0.577,0.583,1.129,0.583,1.965c0,0.874-0.312,1.695-1.044,2.426
		c-0.737,0.737-1.504,0.947-2.597,0.947c-1.035,0-1.842-0.299-2.516-0.928c-0.665-0.627-0.842-1.092-0.917-1.542l1.397-0.708
		c0.083,0.714,0.46,1.073,0.728,1.286c0.704,0.557,1.025,0.436,1.412,0.436c0.562-0.001,1.231-0.274,1.537-0.712
		c0.284-0.408,0.414-0.642,0.375-1.229c-0.073-1.091-0.755-1.53-0.971-1.674c-0.217-0.145-1.941-1.067-1.941-1.067
		c-1.634-0.705-2.211-1.784-2.211-3.14c0-0.915,0.343-1.679,1.028-2.294c0.685-0.62,1.538-0.93,2.559-0.93
		C101.125,53.176,102.171,53.786,102.944,55.148"/>
	<path fill="#FFFFFF" d="M37.842,59.447c0-1.714,0.623-3.187,1.869-4.418c1.242-1.23,2.733-1.846,4.474-1.846
		c1.721,0,3.196,0.621,4.427,1.862c1.236,1.241,1.854,2.732,1.854,4.472c0,1.752-0.62,3.237-1.862,4.458
		c-1.246,1.226-2.75,1.838-4.513,1.838c-1.56,0-2.96-0.544-4.201-1.633C38.525,62.976,37.842,61.398,37.842,59.447 M39.5,59.191
		c0,1.346,0.445,2.682,1.331,3.548c0.881,0.868,2.129,1.435,3.284,1.435c1.252,0,2.596-0.517,3.457-1.401
		c0.861-0.893,1.268-2.268,1.268-3.55c0-1.299-0.594-2.482-1.444-3.36c-0.845-0.883-1.987-1.228-3.234-1.228
		c-1.243,0-2.291,0.442-3.146,1.324C40.16,56.832,39.5,57.909,39.5,59.191z"/>
	<path fill-rule="evenodd" clip-rule="evenodd" fill="#353534" d="M7.836,15.497c4.407,0.015,8.874-0.03,13.243,0.023
		c0.134,0.099,0.048,0.745,0.045,0.975c-1.24,0.052-2.578,0.007-3.855,0.022c-0.084,4.725-0.045,9.357-0.045,14.15
		c0,2.487,0.117,4.525,0.023,6.757c-0.049,1.155-0.163,2.17-0.431,3.061c-0.259,0.859-0.684,1.605-1.225,2.314
		c-0.993,1.297-2.382,2.364-4.263,2.834c-2.012,0.502-4.429,0.219-5.873-0.726c-0.668-0.437-1.224-1.181-1.519-2.041
		c-0.669-1.948,0.678-4.217,2.925-3.56c0.916,0.267,1.494,0.963,1.564,1.972c0.061,0.876-0.34,1.242-0.748,1.769
		c-0.198,0.256-0.489,0.624-0.408,1.043c0.102,0.525,0.79,0.659,1.406,0.725c2.306,0.251,3.217-0.877,3.378-2.88
		c0.108-1.325,0.023-2.791,0.023-4.217c0-7.066,0-14.146,0-21.179c-1.384-0.053-2.865-0.008-4.286-0.023
		c-0.051-0.281-0.008-0.657-0.023-0.975C7.785,15.521,7.809,15.508,7.836,15.497"/>
	<path fill-rule="evenodd" clip-rule="evenodd" fill="#353534" d="M23.913,15.497c3.599,0,7.299,0,10.93,0
		c3.752,0,6.992,0.169,9.388,1.542c1.146,0.657,2.047,1.604,2.494,2.971c0.468,1.428,0.354,3.319-0.34,4.535
		c-1.304,2.285-4.044,3.292-7.053,3.855c0.424,0.123,0.858,0.138,1.27,0.205c2.826,0.453,5.24,1.671,6.508,3.719
		c0.773,1.249,1.047,3.131,0.612,4.785c-0.396,1.505-1.328,2.601-2.472,3.378c-2.332,1.586-5.63,2.123-9.728,1.928
		c-3.782-0.18-7.804,0.042-11.632-0.045c-0.037-0.285-0.037-0.715,0-0.998c1.298-0.012,2.759,0.027,3.945-0.023
		c0.052-8.223,0.007-16.545,0.022-24.807c-1.318-0.049-2.603-0.006-3.968-0.022c-0.051-0.275-0.01-0.641-0.023-0.953
		C23.887,15.547,23.881,15.502,23.913,15.497 M38.97,27.56c1.57-0.675,2.219-2.039,2.472-3.922c0.267-1.987,0.075-4.25-0.703-5.511
		c-0.828-1.34-2.53-1.668-4.761-1.633c-0.939,0.015-1.972,0.018-2.948,0.045c0,3.802,0,7.604,0,11.406
		C35.254,27.926,37.51,28.189,38.97,27.56z M33.029,29.057c0.015,4.089-0.03,8.239,0.023,12.29c2.419-0.132,5.436,0.459,7.052-0.499
		c1.586-0.94,2.06-3.17,2.086-5.578c0.027-2.598-0.587-4.544-2.177-5.51c-1.682-1.022-4.241-0.75-6.939-0.771
		C33.046,28.998,33.028,29.018,33.029,29.057z"/>
	<path fill-rule="evenodd" clip-rule="evenodd" fill="#353534" d="M52.576,15.497c4.346,0.015,8.752-0.03,13.061,0.023
		c0.038,0.282,0.036,0.715,0,0.997c-1.307,0.015-2.675-0.03-3.945,0.023c-0.053,8.216-0.008,16.529-0.023,24.784
		c1.227,0.119,2.705-0.013,3.969,0.068c0.038,0.275,0.036,0.7,0,0.975c-4.369,0-8.738,0-13.107,0c0-0.333,0-0.666,0-0.998
		c1.216-0.016,2.77,0.03,3.945-0.022c0.053-8.224,0.008-16.545,0.023-24.807c-1.267-0.065-2.73,0.024-3.969-0.045
		c0-0.31,0-0.62,0-0.93C52.53,15.526,52.547,15.506,52.576,15.497"/>
	<path fill-rule="evenodd" clip-rule="evenodd" fill="#353534" d="M68.766,15.497c3.333,0.015,6.727-0.03,10.022,0.023
		c0,0.325,0,0.65,0,0.975c-0.927,0.041-1.882,0.022-2.88,0.022c-0.308,0-0.69-0.063-0.952,0c-0.155,0.037-0.42,0.371-0.589,0.544
		c-2.767,2.826-5.55,5.852-8.254,8.663c3.937,4.807,7.98,9.818,12.019,14.671c0.223,0.269,0.577,0.865,0.816,0.953
		c0.331,0.121,1.254-0.05,1.814,0.022c-0.014,0.326,0.029,0.709-0.023,0.998c-4.157,0-8.314,0-12.471,0
		c-0.052-0.289-0.009-0.672-0.023-0.998c1.347-0.014,2.751,0.029,4.059-0.022c-0.012-0.177-0.174-0.285-0.272-0.409
		c-3.289-4.131-6.616-8.34-9.909-12.494c0.401-0.553,0.902-1.02,1.361-1.519c3.191-3.471,6.54-6.874,9.727-10.385
		c-1.451-0.053-3.001-0.008-4.49-0.023c-0.077-0.253-0.045-0.759-0.022-0.975C68.714,15.521,68.739,15.508,68.766,15.497"/>
	<path fill-rule="evenodd" clip-rule="evenodd" fill="#353534" d="M85.886,23.275c0.979-0.079,1.858,0.972,1.406,1.995
		c-0.177,0.4-0.687,0.836-1.292,0.839c-0.883,0.005-1.698-0.865-1.361-1.905C84.793,23.729,85.247,23.327,85.886,23.275"/>
	<path fill-rule="evenodd" clip-rule="evenodd" fill="#353534" d="M117.336,40.44c0.03,0.107,0.024,0.249,0.022,0.386
		c-0.647,0.339-1.375,0.486-2.063,0.748c-0.68,0.259-1.348,0.565-2.064,0.749c-0.149-0.425-0.028-1.12-0.068-1.655
		c-0.135-0.02-0.198,0.13-0.272,0.203c-0.615,0.616-1.235,1.118-2.29,1.361c-1.22,0.28-2.535,0.02-3.424-0.499
		c-1.633-0.952-2.843-2.989-2.722-5.555c0.124-2.606,1.123-4.433,2.631-5.691c0.739-0.616,1.787-1.095,3.038-1.134
		c1.366-0.043,2.214,0.435,3.016,1.134c0.042-0.831,0.023-1.857,0.023-2.925c0.001-0.851,0.173-2.242-0.34-2.586
		c-0.362-0.243-1.004-0.077-1.497-0.091c-0.048-0.095-0.01-0.276-0.022-0.408c1.29-0.396,2.809-0.723,3.968-1.202
		c0.336-0.139,0.192,0.584,0.181,0.861c-0.084,2.295-0.045,4.752-0.045,7.052c0,1.35-0.021,2.77-0.022,4.037
		c0,1.387-0.079,2.759,0,4.036c0.018,0.279,0.076,0.641,0.204,0.839C115.873,40.538,116.789,40.475,117.336,40.44 M108.878,30.508
		c-1.89,1.11-2.524,4.646-1.7,7.211c0.341,1.064,0.891,2.099,1.791,2.675c0.488,0.313,1.204,0.481,1.746,0.5
		c0.981,0.033,2.151-0.539,2.404-1.542c0.132-0.521,0.046-1.346,0.045-2.019c0-0.73,0.001-1.446,0-2.063
		c0-1.322,0.09-2.941-0.363-3.764c-0.427-0.779-1.603-1.468-2.699-1.361C109.622,30.193,109.217,30.31,108.878,30.508z"/>
	<path fill-rule="evenodd" clip-rule="evenodd" fill="#353534" d="M103.391,41.732c0,0.106,0,0.212,0,0.317
		c-1.804,0.076-3.931,0.076-5.76,0c-0.1-0.374,0.14-0.366,0.408-0.43c0.912-0.219,1.284-0.627,1.361-1.701
		c0.055-0.76,0-1.553,0-2.358c0-0.752,0-1.536,0-2.336c0.001-1.647,0.119-3.436-0.93-4.036c-1.128-0.645-2.454,0.071-3.175,0.68
		c-0.198,0.168-0.659,0.46-0.725,0.703c-0.065,0.238,0,0.723,0,1.089c0,1.824,0,3.586,0,5.442c0,0.733-0.021,1.507,0.203,1.95
		c0.26,0.508,0.895,0.587,1.611,0.68c0,0.106,0,0.212,0,0.317c-1.849,0.076-4.023,0.076-5.896,0
		c-0.161-0.46,0.434-0.404,0.771-0.522c0.584-0.203,0.851-0.512,0.93-1.247c0.138-1.286,0.023-2.89,0.023-4.422
		c0-0.695,0-1.514,0-2.222c0-0.696,0.048-1.6-0.159-2.041c-0.229-0.49-0.953-0.594-1.61-0.476c-0.034-0.094-0.04-0.337,0-0.43
		c0.619-0.281,1.306-0.434,1.972-0.658c0.656-0.22,1.311-0.491,1.973-0.612c0.12,0.614-0.014,1.48,0.068,2.131
		c0.183-0.028,0.284-0.206,0.407-0.317c0.882-0.791,1.933-1.745,3.492-1.859c1.175-0.086,1.963,0.46,2.472,1.088
		c0.559,0.688,0.784,1.581,0.862,2.676c0.164,2.303-0.126,4.827,0.022,7.052C101.78,41.166,102.359,41.714,103.391,41.732"/>
	<path fill-rule="evenodd" clip-rule="evenodd" fill="#353534" d="M87.291,29.397c0.019,0.004,0.023,0.023,0.045,0.022
		c0.042,2.817,0.022,6.039,0.023,9.07c0,0.955-0.082,2.154,0.34,2.676c0.364,0.451,1.13,0.418,1.701,0.566c0,0.114,0,0.228,0,0.34
		c-2.124,0.038-4.407,0.038-6.531,0c0-0.106,0-0.212,0-0.317c0.571-0.207,1.496-0.141,1.859-0.589
		c0.17-0.21,0.285-0.776,0.317-1.225c0.084-1.161,0-2.488,0-3.832c0-1.347,0.081-2.686,0-3.833
		c-0.015-0.227-0.065-0.546-0.136-0.703c-0.314-0.694-1.354-0.421-1.927-0.272c-0.11-0.432,0.169-0.461,0.499-0.567
		c0.562-0.18,1.11-0.367,1.633-0.544C85.932,29.915,86.662,29.637,87.291,29.397"/>
</g>
</svg>
